# xmcd CD database file
#
# Track frame offsets:
#	150
#	11644
#	23893
#	35963
#	47126
#	66971
#	80307
#	94537
#	108420
#	120469
#
# Disc length: 1774 seconds
#
# Revision: 0
# Processed by: cddbd v1.5.1PL0 Copyright (c) Steve Scherf et al.
# Submitted via: CDex 1.50
#
DISCID=7c06ec0a
DTITLE=Stella Parton - Favorites Vol 1
DYEAR=1900
DGENRE=Country
TTITLE0=Steady As The Rain
TTITLE1=I'm Not That Good At Goodbye
TTITLE2=Standard Lie Number One
TTITLE3=The Danger Of A Stranger
TTITLE4=I Wanna Hold You In My Dreams
TTITLE5=Young Love
TTITLE6=The Room At The Top O fThe Stairs
TTITLE7=Lie To Linda
TTITLE8=Stormy Weather
TTITLE9=Legs
EXTD=
EXTT0=
EXTT1=
EXTT2=
EXTT3=
EXTT4=
EXTT5=
EXTT6=
EXTT7=
EXTT8=
EXTT9=
PLAYORDER=
